<?xml version="1.0" encoding="UTF-8"?>
<!DOCTYPE svg PUBLIC "-//W3C//DTD SVG 1.1//EN" "http://www.w3.org/Graphics/SVG/1.1/DTD/svg11.dtd">
<svg xmlns="http://www.w3.org/2000/svg" version="1.1" width="4945px" height="3269px" style="shape-rendering:geometricPrecision; text-rendering:geometricPrecision; image-rendering:optimizeQuality; fill-rule:evenodd; clip-rule:evenodd" xmlns:xlink="http://www.w3.org/1999/xlink">
<g><path style="opacity:0.937" fill="#c39b19" d="M 1532.5,0.5 C 1532.5,0.166667 1532.5,-0.166667 1532.5,-0.5C 1594.17,-0.5 1655.83,-0.5 1717.5,-0.5C 1717.5,0.833333 1717.5,2.16667 1717.5,3.5C 1716.6,2.79105 1716.26,1.79105 1716.5,0.5C 1655.17,0.5 1593.83,0.5 1532.5,0.5 Z"/></g>
<g><path style="opacity:0.984" fill="#d7aa15" d="M 1520.5,0.5 C 1493.34,1.49791 1466.01,1.83124 1438.5,1.5C 1438.74,2.79105 1438.4,3.79105 1437.5,4.5C 1437.5,3.16667 1437.5,1.83333 1437.5,0.5C 1465.17,0.5 1492.83,0.5 1520.5,0.5 Z"/></g>
<g><path style="opacity:1" fill="#f8c20e" d="M 1520.5,0.5 C 1524.5,0.5 1528.5,0.5 1532.5,0.5C 1593.83,0.5 1655.17,0.5 1716.5,0.5C 1716.26,1.79105 1716.6,2.79105 1717.5,3.5C 1731.24,107.074 1744.57,210.74 1757.5,314.5C 1858.77,329.316 1956.77,355.982 2051.5,394.5C 2115.88,312.286 2179.71,229.619 2243,146.5C 2244.35,144.981 2245.85,143.648 2247.5,142.5C 2329.2,189.344 2410.53,236.677 2491.5,284.5C 2448.83,381.5 2406.17,478.5 2363.5,575.5C 2395.04,600.7 2425.37,627.367 2454.5,655.5C 2455.17,658.167 2456.83,659.833 2459.5,660.5C 2468.5,668.833 2477.17,677.5 2485.5,686.5C 2487.77,690.436 2490.77,693.769 2494.5,696.5C 2498.5,699.833 2502.17,703.5 2505.5,707.5C 2506.08,709.749 2507.41,711.415 2509.5,712.5C 2511.83,714.167 2513.83,716.167 2515.5,718.5C 2516.42,721.089 2518.09,723.089 2520.5,724.5C 2525.78,729.041 2530.61,734.041 2535,739.5C 2550.18,757.873 2565.34,776.206 2580.5,794.5C 2677.74,751.962 2774.91,709.296 2872,666.5C 2919.5,748 2967,829.5 3014.5,911C 2967.67,940.584 2920.67,969.917 2873.5,999C 2680.5,999.667 2487.5,999.667 2294.5,999C 2274.78,974.108 2253.78,950.275 2231.5,927.5C 2227.17,921.167 2221.83,915.833 2215.5,911.5C 2211.17,907.833 2207.17,903.833 2203.5,899.5C 2201.76,896.757 2199.43,894.757 2196.5,893.5C 2020.56,735.588 1813.56,654.922 1575.5,651.5C 1316.91,656.435 1097.07,750.102 916,932.5C 745.853,1113.28 659.019,1328.61 655.5,1578.5C 658.461,1820.59 740.461,2030.92 901.5,2209.5C 902.757,2212.43 904.757,2214.76 907.5,2216.5C 1097.75,2412.14 1330.08,2508.31 1604.5,2505C 1832.91,2495.09 2031.25,2413.92 2199.5,2261.5C 2205.44,2257.23 2210.78,2252.23 2215.5,2246.5C 2215.61,2245.88 2215.94,2245.38 2216.5,2245C 2280.17,2244.83 2343.83,2244.67 2407.5,2244.5C 2607.83,2245.19 2808.17,2245.52 3008.5,2245.5C 3009.83,2245.5 3011.17,2245.5 3012.5,2245.5C 3013.46,2246.72 3013.3,2248.05 3012,2249.5C 2965.5,2329.83 2919,2410.17 2872.5,2490.5C 2775.17,2447.5 2677.83,2404.5 2580.5,2361.5C 2516.93,2442.4 2444.93,2515.07 2364.5,2579.5C 2406.74,2677.37 2449.07,2775.21 2491.5,2873C 2410.44,2920.37 2329.11,2967.37 2247.5,3014C 2245.63,3014.71 2244.13,3014.21 2243,3012.5C 2180.04,2928.38 2116.54,2844.72 2052.5,2761.5C 1958.79,2799.84 1861.79,2826.18 1761.5,2840.5C 1759.83,2840.5 1758.17,2840.5 1756.5,2840.5C 1756.5,2841.83 1756.5,2843.17 1756.5,2844.5C 1744.16,2948.54 1731.49,3052.54 1718.5,3156.5C 1623.83,3156.67 1529.17,3156.5 1434.5,3156C 1422.88,3054.28 1411.88,2952.44 1401.5,2850.5C 1402.04,2847.3 1401.37,2844.64 1399.5,2842.5C 1297.76,2829.11 1199.26,2803.44 1104,2765.5C 1038.97,2849.57 973.472,2933.23 907.5,3016.5C 825.801,2968.66 744.467,2920.32 663.5,2871.5C 705.705,2776.26 748.038,2681.09 790.5,2586C 774.726,2574.39 759.726,2561.89 745.5,2548.5C 744.415,2546.41 742.749,2545.08 740.5,2544.5C 736.209,2541.88 732.543,2538.54 729.5,2534.5C 728.415,2532.41 726.749,2531.08 724.5,2530.5C 718.203,2525.87 712.537,2520.54 707.5,2514.5C 706.089,2512.09 704.089,2510.42 701.5,2509.5C 697.167,2505.83 693.167,2501.83 689.5,2497.5C 684.443,2491.44 678.776,2486.11 672.5,2481.5C 669.167,2476.17 664.833,2471.83 659.5,2468.5C 628.335,2436.84 599.169,2403.51 572,2368.5C 476.018,2410.24 379.851,2451.57 283.5,2492.5C 281.912,2491.99 280.745,2490.99 280,2489.5C 234,2409.5 188,2329.5 142,2249.5C 141.289,2247.63 141.789,2246.13 143.5,2245C 226.118,2182.05 308.452,2118.72 390.5,2055C 352.233,1960.44 325.899,1862.6 311.5,1761.5C 207.462,1747.11 103.462,1732.45 -0.5,1717.5C -0.5,1625.5 -0.5,1533.5 -0.5,1441.5C 103.122,1427.92 206.788,1414.59 310.5,1401.5C 324.431,1301.11 349.931,1203.77 387,1109.5C 387.991,1107.55 388.325,1105.55 388,1103.5C 303.532,1039.35 219.365,974.854 135.5,910C 183.549,827.303 232.383,745.137 282,663.5C 378.132,705.234 474.132,747.234 570,789.5C 581.656,774.682 593.823,760.348 606.5,746.5C 608.587,745.415 609.92,743.749 610.5,741.5C 611.167,740.167 612.167,739.167 613.5,738.5C 615.587,737.415 616.92,735.749 617.5,733.5C 618.167,732.167 619.167,731.167 620.5,730.5C 622.587,729.415 623.92,727.749 624.5,725.5C 625.833,723.5 627.5,721.833 629.5,720.5C 631.587,719.415 632.92,717.749 633.5,715.5C 635.833,712.5 638.5,709.833 641.5,707.5C 643.914,706.089 645.581,704.089 646.5,701.5C 651.833,695.5 657.5,689.833 663.5,684.5C 670.167,678.5 676.5,672.167 682.5,665.5C 684.5,662.833 686.833,660.5 689.5,658.5C 695.442,654.227 700.776,649.227 705.5,643.5C 731.795,618.036 759.462,594.202 788.5,572C 746.751,477.336 705.417,382.502 664.5,287.5C 664.366,285.708 664.699,284.042 665.5,282.5C 746.535,234.831 827.868,187.497 909.5,140.5C 973.691,223.524 1037.69,306.691 1101.5,390C 1102.83,390.667 1104.17,390.667 1105.5,390C 1199.08,352.975 1295.75,327.475 1395.5,313.5C 1396.65,313.182 1397.48,312.516 1398,311.5C 1410.93,209.085 1424.09,106.752 1437.5,4.5C 1438.4,3.79105 1438.74,2.79105 1438.5,1.5C 1466.01,1.83124 1493.34,1.49791 1520.5,0.5 Z"/></g>
<g><path style="opacity:0.984" fill="#b19123" d="M 665.5,282.5 C 664.699,284.042 664.366,285.708 664.5,287.5C 661.524,285.128 661.857,283.461 665.5,282.5 Z"/></g>
<g><path style="opacity:0.992" fill="#caa11a" d="M 705.5,643.5 C 700.776,649.227 695.442,654.227 689.5,658.5C 694.224,652.773 699.558,647.773 705.5,643.5 Z"/></g>
<g><path style="opacity:0.875" fill="#a58813" d="M 2454.5,655.5 C 2456.5,656.833 2458.17,658.5 2459.5,660.5C 2456.83,659.833 2455.17,658.167 2454.5,655.5 Z"/></g>
<g><path style="opacity:0.867" fill="#a4891f" d="M 682.5,665.5 C 676.5,672.167 670.167,678.5 663.5,684.5C 668.833,677.167 675.167,670.833 682.5,665.5 Z"/></g>
<g><path style="opacity:0.957" fill="#b08f22" d="M 2485.5,686.5 C 2489.23,689.231 2492.23,692.564 2494.5,696.5C 2490.77,693.769 2487.77,690.436 2485.5,686.5 Z"/></g>
<g><path style="opacity:0.91" fill="#b09121" d="M 646.5,701.5 C 645.581,704.089 643.914,706.089 641.5,707.5C 642.419,704.911 644.086,702.911 646.5,701.5 Z"/></g>
<g><path style="opacity:0.957" fill="#ad8b16" d="M 2505.5,707.5 C 2507.59,708.585 2508.92,710.251 2509.5,712.5C 2507.41,711.415 2506.08,709.749 2505.5,707.5 Z"/></g>
<g><path style="opacity:1" fill="#f7c20e" d="M 2204.5,983.5 C 2205.76,986.427 2207.76,988.761 2210.5,990.5C 2213.63,993.129 2216.63,995.962 2219.5,999C 2157.83,999.667 2096.17,999.667 2034.5,999C 1871.08,875.666 1687.08,824.999 1482.5,847C 1276.69,875.279 1109.52,970.113 981,1131.5C 857.073,1296.51 808.407,1481.85 835,1687.5C 857.556,1833.58 917.39,1961.58 1014.5,2071.5C 1015.08,2073.75 1016.41,2075.42 1018.5,2076.5C 1021.17,2078.5 1023.5,2080.83 1025.5,2083.5C 1026.76,2086.43 1028.76,2088.76 1031.5,2090.5C 1196.87,2256.44 1397.2,2332.61 1632.5,2319C 1727.63,2311.62 1817.96,2286.95 1903.5,2245C 1981.17,2244.33 2058.83,2244.33 2136.5,2245C 1988.96,2370.22 1817.96,2439.22 1623.5,2452C 1388.05,2462.3 1181.38,2391.3 1003.5,2239C 996.663,2233.33 990.329,2227.16 984.5,2220.5C 982.761,2217.76 980.427,2215.76 977.5,2214.5C 905.205,2145.87 846.538,2067.2 801.5,1978.5C 801.715,1976.82 801.048,1975.82 799.5,1975.5C 799.5,1975.17 799.5,1974.83 799.5,1974.5C 799.715,1972.82 799.048,1971.82 797.5,1971.5C 797.5,1971.17 797.5,1970.83 797.5,1970.5C 797.715,1968.82 797.048,1967.82 795.5,1967.5C 722.695,1816.47 694.695,1657.47 711.5,1490.5C 712.957,1485.4 713.624,1480.07 713.5,1474.5C 735.73,1295.44 806.063,1138.77 924.5,1004.5C 926.587,1003.42 927.92,1001.75 928.5,999.5C 929.833,997.5 931.5,995.833 933.5,994.5C 935.914,993.089 937.581,991.089 938.5,988.5C 941.167,985.167 944.167,982.167 947.5,979.5C 957.833,969.833 967.833,959.833 977.5,949.5C 1083.29,847.901 1207.62,777.734 1350.5,739C 1549.77,688.2 1743.44,704.2 1931.5,787C 2035.32,834.889 2126.32,900.389 2204.5,983.5 Z"/></g>
<g><path style="opacity:0.867" fill="#b2902f" d="M 633.5,715.5 C 632.92,717.749 631.587,719.415 629.5,720.5C 630.08,718.251 631.413,716.585 633.5,715.5 Z"/></g>
<g><path style="opacity:0.976" fill="#b5912a" d="M 2515.5,718.5 C 2517.91,719.911 2519.58,721.911 2520.5,724.5C 2518.09,723.089 2516.42,721.089 2515.5,718.5 Z"/></g>
<g><path style="opacity:0.867" fill="#b2902f" d="M 624.5,725.5 C 623.92,727.749 622.587,729.415 620.5,730.5C 621.08,728.251 622.413,726.585 624.5,725.5 Z"/></g>
<g><path style="opacity:0.894" fill="#ae8d14" d="M 617.5,733.5 C 616.92,735.749 615.587,737.415 613.5,738.5C 614.08,736.251 615.413,734.585 617.5,733.5 Z"/></g>
<g><path style="opacity:0.882" fill="#b3912d" d="M 610.5,741.5 C 609.92,743.749 608.587,745.415 606.5,746.5C 607.08,744.251 608.413,742.585 610.5,741.5 Z"/></g>
<g><path style="opacity:0.973" fill="#ae8d25" d="M 2196.5,893.5 C 2199.43,894.757 2201.76,896.757 2203.5,899.5C 2200.57,898.243 2198.24,896.243 2196.5,893.5 Z"/></g>
<g><path style="opacity:0.969" fill="#b8911a" d="M 2215.5,911.5 C 2221.83,915.833 2227.17,921.167 2231.5,927.5C 2225.83,922.5 2220.5,917.167 2215.5,911.5 Z"/></g>
<g><path style="opacity:0.961" fill="#bc9619" d="M 977.5,949.5 C 967.833,959.833 957.833,969.833 947.5,979.5C 956.242,969.254 965.575,959.421 975.5,950C 976.094,949.536 976.761,949.369 977.5,949.5 Z"/></g>
<g><path style="opacity:0.969" fill="#b08f24" d="M 2204.5,983.5 C 2207.24,985.239 2209.24,987.573 2210.5,990.5C 2207.76,988.761 2205.76,986.427 2204.5,983.5 Z"/></g>
<g><path style="opacity:0.906" fill="#b09121" d="M 938.5,988.5 C 937.581,991.089 935.914,993.089 933.5,994.5C 934.419,991.911 936.086,989.911 938.5,988.5 Z"/></g>
<g><path style="opacity:0.855" fill="#b18f2f" d="M 928.5,999.5 C 927.92,1001.75 926.587,1003.42 924.5,1004.5C 925.08,1002.25 926.413,1000.58 928.5,999.5 Z"/></g>
<g><path style="opacity:0.998" fill="#009898" d="M 2629.5,1038.5 C 2733.69,1035.35 2817.86,1074.35 2882,1155.5C 2891.5,1168.49 2900.5,1181.82 2909,1195.5C 2932.19,1161.3 2959.36,1130.47 2990.5,1103C 3036.6,1066.29 3089.27,1045.62 3148.5,1041C 3208.26,1034.51 3266.6,1040.84 3323.5,1060C 3393.62,1087.78 3443.78,1136.28 3474,1205.5C 3494.59,1255.1 3506.25,1306.77 3509,1360.5C 3510.48,1636.16 3510.98,1911.82 3510.5,2187.5C 3397.83,2187.5 3285.17,2187.5 3172.5,2187.5C 3172.67,1934.17 3172.5,1680.83 3172,1427.5C 3171.84,1412.35 3168.51,1398.02 3162,1384.5C 3153.17,1374.99 3142.17,1370.33 3129,1370.5C 3104.56,1371.94 3089.56,1384.61 3084,1408.5C 3081.03,1419.3 3079.36,1430.3 3079,1441.5C 3078.5,1690.17 3078.33,1938.83 3078.5,2187.5C 2966.17,2187.5 2853.83,2187.5 2741.5,2187.5C 2741.98,1933.82 2741.48,1680.16 2740,1426.5C 2739.32,1417.4 2737.99,1408.4 2736,1399.5C 2733.79,1387.23 2726.96,1378.73 2715.5,1374C 2679.83,1365.44 2658.33,1379.27 2651,1415.5C 2648.6,1427.04 2647.27,1438.71 2647,1450.5C 2646.5,1696.17 2646.33,1941.83 2646.5,2187.5C 2534.17,2187.5 2421.83,2187.5 2309.5,2187.5C 2309.33,1909.17 2309.5,1630.83 2310,1352.5C 2314.61,1252.78 2354.78,1170.95 2430.5,1107C 2489.2,1062.38 2555.53,1039.54 2629.5,1038.5 Z"/></g>
<g><path style="opacity:0.998" fill="#009898" d="M 4220.5,1038.5 C 4313.2,1036.17 4402.2,1053 4487.5,1089C 4634.1,1157.28 4735.27,1267.44 4791,1419.5C 4804.39,1456 4815.56,1493.17 4824.5,1531C 4824.36,1531.77 4824.02,1532.44 4823.5,1533C 4701.81,1540.97 4580.14,1549.14 4458.5,1557.5C 4411.94,1414.51 4314.28,1355.35 4165.5,1380C 4085.38,1400.45 4028.88,1448.62 3996,1524.5C 3972.56,1587.43 3969.22,1651.43 3986,1716.5C 4010.95,1796.45 4062.78,1850.61 4141.5,1879C 4195.06,1894 4248.72,1894.33 4302.5,1880C 4373.4,1857.43 4421.9,1811.26 4448,1741.5C 4459.59,1709.81 4466.76,1677.14 4469.5,1643.5C 4588.82,1646.77 4708.16,1649.77 4827.5,1652.5C 4816.39,1749.32 4789.23,1841.32 4746,1928.5C 4654.17,2098.84 4511.67,2196.01 4318.5,2220C 4222.3,2231.94 4127.63,2224.61 4034.5,2198C 3916.26,2160.15 3819.1,2092.32 3743,1994.5C 3663.51,1888.7 3624.35,1769.2 3625.5,1636C 3625.94,1453.84 3694.27,1303.18 3830.5,1184C 3942.69,1089.09 4072.69,1040.59 4220.5,1038.5 Z"/></g>
<g><path style="opacity:0.997" fill="#009898" d="M 1806.5,1061.5 C 1919.5,1061.5 2032.5,1061.5 2145.5,1061.5C 2145.67,1324.5 2145.5,1587.5 2145,1850.5C 2139.96,1960.08 2098.12,2052.58 2019.5,2128C 1945.9,2192.19 1860.24,2218.86 1762.5,2208C 1739.06,2204.22 1716.06,2198.72 1693.5,2191.5C 1693.33,2083.5 1693.5,1975.5 1694,1867.5C 1759.37,1894.31 1796.37,1872.65 1805,1802.5C 1806.49,1555.52 1806.99,1308.52 1806.5,1061.5 Z"/></g>
<g><path style="opacity:0.993" fill="#5e5e5d" d="M 1216.5,1123.5 C 1231.13,1126.39 1245.8,1129.23 1260.5,1132C 1261.13,1133.74 1261.46,1135.57 1261.5,1137.5C 1260.16,1152.16 1259.32,1166.83 1259,1181.5C 1272.6,1186.55 1285.43,1193.05 1297.5,1201C 1298.5,1201.67 1299.5,1201.67 1300.5,1201C 1312.35,1190.31 1324.35,1179.81 1336.5,1169.5C 1348.31,1179.48 1359.98,1189.65 1371.5,1200C 1361.97,1213.36 1352.64,1226.86 1343.5,1240.5C 1352.75,1251.98 1360.75,1264.31 1367.5,1277.5C 1368.33,1277.83 1369.17,1278.17 1370,1278.5C 1385.77,1274.77 1401.6,1271.43 1417.5,1268.5C 1422.06,1282.67 1426.72,1296.84 1431.5,1311C 1430.56,1312.48 1429.22,1313.48 1427.5,1314C 1414.17,1319 1400.83,1324 1387.5,1329C 1386.92,1329.89 1386.59,1330.89 1386.5,1332C 1388.86,1346.06 1390.03,1360.23 1390,1374.5C 1405.86,1380.01 1421.69,1385.51 1437.5,1391C 1433.95,1405.7 1430.95,1420.53 1428.5,1435.5C 1412.5,1433.17 1396.5,1430.83 1380.5,1428.5C 1375.07,1447.19 1367.07,1464.69 1356.5,1481C 1368.28,1491.94 1379.95,1503.11 1391.5,1514.5C 1381.52,1526.31 1371.35,1537.98 1361,1549.5C 1348.25,1540.21 1335.42,1531.04 1322.5,1522C 1321.5,1521.33 1320.5,1521.33 1319.5,1522C 1307.71,1531.12 1295.38,1539.45 1282.5,1547C 1286.24,1562.79 1289.91,1578.62 1293.5,1594.5C 1279.4,1600.09 1265.06,1605.09 1250.5,1609.5C 1249.83,1609.17 1249.17,1608.83 1248.5,1608.5C 1241.36,1594.38 1234.36,1580.21 1227.5,1566C 1212.3,1568.07 1196.97,1568.9 1181.5,1568.5C 1176.98,1583.91 1172.15,1599.24 1167,1614.5C 1166.28,1615.06 1165.44,1615.39 1164.5,1615.5C 1157.23,1613.61 1149.9,1612.44 1142.5,1612C 1149.36,1620.69 1156.03,1629.52 1162.5,1638.5C 1173.51,1634.43 1184.84,1631.77 1196.5,1630.5C 1198.35,1617.86 1200.02,1605.19 1201.5,1592.5C 1213.85,1592.41 1226.18,1592.75 1238.5,1593.5C 1239.67,1604.49 1240.83,1615.49 1242,1626.5C 1242.12,1628.73 1242.95,1630.56 1244.5,1632C 1255.19,1634.06 1265.52,1637.23 1275.5,1641.5C 1283.8,1631.52 1292.14,1621.52 1300.5,1611.5C 1311.2,1617.51 1321.53,1624.01 1331.5,1631C 1326.3,1642.56 1320.97,1654.06 1315.5,1665.5C 1324.55,1673.39 1332.72,1682.05 1340,1691.5C 1351.92,1685.85 1363.92,1681.18 1376,1677.5C 1381.96,1687.92 1387.79,1698.42 1393.5,1709C 1382.33,1715.42 1371.33,1722.08 1360.5,1729C 1364.55,1739.15 1367.38,1749.65 1369,1760.5C 1369.77,1761.85 1370.94,1762.68 1372.5,1763C 1384.13,1764.83 1395.8,1766.33 1407.5,1767.5C 1407.49,1780.18 1407.15,1792.84 1406.5,1805.5C 1394.17,1805.5 1381.83,1805.5 1369.5,1805.5C 1367.84,1820.48 1363.84,1834.82 1357.5,1848.5C 1368.17,1855.5 1378.83,1862.5 1389.5,1869.5C 1383.49,1880.2 1376.99,1890.53 1370,1900.5C 1358.48,1895.55 1347.15,1890.22 1336,1884.5C 1327.43,1893.07 1318.93,1901.57 1310.5,1910C 1315.62,1921.72 1320.12,1933.56 1324,1945.5C 1313.58,1951.29 1303.08,1956.96 1292.5,1962.5C 1284.5,1952.17 1276.5,1941.83 1268.5,1931.5C 1257.83,1935.58 1246.83,1938.25 1235.5,1939.5C 1233.64,1952.05 1231.64,1964.55 1229.5,1977C 1217.17,1977.5 1204.84,1977.67 1192.5,1977.5C 1191.56,1964.49 1190.56,1951.49 1189.5,1938.5C 1178.04,1937.22 1167.04,1934.22 1156.5,1929.5C 1148.13,1938.37 1140.3,1947.7 1133,1957.5C 1132.28,1958.06 1131.44,1958.39 1130.5,1958.5C 1119.87,1952.51 1109.53,1946.01 1099.5,1939C 1104.86,1928.6 1110.02,1918.1 1115,1907.5C 1115.67,1906.5 1115.67,1905.5 1115,1904.5C 1106.46,1897.63 1098.96,1889.8 1092.5,1881C 1081.96,1883.75 1071.63,1887.42 1061.5,1892C 1059.55,1892.99 1057.55,1893.32 1055.5,1893C 1049.83,1882.65 1044.16,1872.32 1038.5,1862C 1048.27,1853.61 1058.6,1845.94 1069.5,1839C 1065.18,1828.21 1062.18,1817.05 1060.5,1805.5C 1048.26,1802.96 1035.93,1800.96 1023.5,1799.5C 1023.5,1787.17 1023.5,1774.83 1023.5,1762.5C 1035.85,1761.6 1048.18,1760.43 1060.5,1759C 1062.86,1753.08 1064.69,1746.92 1066,1740.5C 1067.54,1735.38 1069.37,1730.38 1071.5,1725.5C 1061.5,1717.17 1051.5,1708.83 1041.5,1700.5C 1047.46,1690.08 1053.79,1679.91 1060.5,1670C 1061.5,1669.33 1062.5,1669.33 1063.5,1670C 1073.94,1674.97 1084.44,1679.8 1095,1684.5C 1101.84,1677 1109.34,1670.16 1117.5,1664C 1120.09,1662.47 1120.92,1660.31 1120,1657.5C 1115.83,1647.16 1111.66,1636.83 1107.5,1626.5C 1108.71,1624.55 1110.37,1623.05 1112.5,1622C 1119.83,1618 1127.17,1614 1134.5,1610C 1130.61,1608.62 1126.61,1607.62 1122.5,1607C 1121.57,1606.61 1120.91,1605.95 1120.5,1605C 1122.74,1589.21 1123.74,1573.37 1123.5,1557.5C 1109.72,1552.36 1096.56,1546.03 1084,1538.5C 1071.34,1549.15 1058.68,1559.82 1046,1570.5C 1034.59,1559.88 1023.09,1549.38 1011.5,1539C 1020.83,1525.67 1030.17,1512.33 1039.5,1499C 1029.47,1487.31 1020.64,1474.81 1013,1461.5C 997.197,1465.03 981.363,1468.36 965.5,1471.5C 960.843,1457.2 956.177,1442.86 951.5,1428.5C 951.833,1427.83 952.167,1427.17 952.5,1426.5C 966.289,1420.11 979.956,1413.44 993.5,1406.5C 993.833,1405.5 994.167,1404.5 994.5,1403.5C 992.396,1389.25 991.229,1374.91 991,1360.5C 978.235,1355.87 965.401,1351.37 952.5,1347C 949.784,1346.22 947.45,1344.88 945.5,1343C 948.589,1328.89 951.422,1314.72 954,1300.5C 954.414,1300.04 954.914,1299.71 955.5,1299.5C 971.031,1300.81 986.531,1302.15 1002,1303.5C 1007.9,1289.2 1014.73,1275.37 1022.5,1262C 1012.03,1249.36 1001.37,1236.86 990.5,1224.5C 1000.46,1212.54 1010.8,1200.87 1021.5,1189.5C 1035.14,1198.64 1048.64,1207.97 1062,1217.5C 1073.21,1207.81 1085.38,1199.47 1098.5,1192.5C 1098.83,1191.67 1099.17,1190.83 1099.5,1190C 1095.93,1174.54 1092.59,1159.04 1089.5,1143.5C 1103.95,1139.24 1118.28,1134.57 1132.5,1129.5C 1133.17,1129.83 1133.83,1130.17 1134.5,1130.5C 1141.67,1144.83 1148.83,1159.17 1156,1173.5C 1160.72,1172.22 1165.55,1171.39 1170.5,1171C 1180.83,1170.5 1191.16,1170.33 1201.5,1170.5C 1206.3,1154.77 1211.3,1139.11 1216.5,1123.5 Z M 1178.5,1227.5 C 1243.57,1225.26 1290.73,1252.93 1320,1310.5C 1341.73,1364.41 1335.06,1414.41 1300,1460.5C 1259.5,1505.66 1209.67,1520.83 1150.5,1506C 1094.29,1486.45 1061.12,1447.28 1051,1388.5C 1046.03,1340.07 1060.86,1298.9 1095.5,1265C 1119.25,1243.79 1146.91,1231.29 1178.5,1227.5 Z M 1177.5,1256.5 C 1234.28,1253.95 1274.45,1278.29 1298,1329.5C 1314.93,1383.71 1301.09,1428.21 1256.5,1463C 1227.2,1482.05 1195.53,1487.38 1161.5,1479C 1114.9,1464.06 1087.06,1432.56 1078,1384.5C 1073.56,1334.87 1092.4,1297.04 1134.5,1271C 1148.18,1263.83 1162.51,1259 1177.5,1256.5 Z M 1206.5,1674.5 C 1263.23,1674.26 1301.4,1700.59 1321,1753.5C 1332.26,1798.63 1321.1,1837.13 1287.5,1869C 1247.81,1899.8 1205.47,1903.8 1160.5,1881C 1114.03,1849.52 1097.53,1806.35 1111,1751.5C 1127.84,1707.15 1159.67,1681.49 1206.5,1674.5 Z M 1204.5,1697.5 C 1248.08,1695.19 1279.25,1713.53 1298,1752.5C 1312.35,1797.12 1300.52,1832.95 1262.5,1860C 1229.76,1878.47 1197.43,1877.8 1165.5,1858C 1129.32,1829.78 1118.82,1793.94 1134,1750.5C 1148.54,1720.78 1172.04,1703.11 1204.5,1697.5 Z"/></g>
<g><path style="opacity:0.984" fill="#5e5e5d" d="M 1175.5,1233.5 C 1234.41,1229.7 1279.24,1252.7 1310,1302.5C 1331.05,1343.06 1332.71,1384.39 1315,1426.5C 1289.3,1477.04 1247.97,1503.7 1191,1506.5C 1137.73,1504.21 1097.73,1480.21 1071,1434.5C 1051.86,1394.76 1050.52,1354.43 1067,1313.5C 1089.47,1268.19 1125.64,1241.52 1175.5,1233.5 Z M 1177.5,1256.5 C 1162.51,1259 1148.18,1263.83 1134.5,1271C 1092.4,1297.04 1073.56,1334.87 1078,1384.5C 1087.06,1432.56 1114.9,1464.06 1161.5,1479C 1195.53,1487.38 1227.2,1482.05 1256.5,1463C 1301.09,1428.21 1314.93,1383.71 1298,1329.5C 1274.45,1278.29 1234.28,1253.95 1177.5,1256.5 Z"/></g>
<g><path style="opacity:0.929" fill="#c0991e" d="M 713.5,1474.5 C 713.624,1480.07 712.957,1485.4 711.5,1490.5C 711.527,1484.95 712.194,1479.62 713.5,1474.5 Z"/></g>
<g><path style="opacity:0.992" fill="#5e5e5d" d="M 1558.5,1574.5 C 1562.03,1573.99 1565.2,1574.66 1568,1576.5C 1569.42,1586.16 1570.75,1595.82 1572,1605.5C 1572.37,1606.42 1572.87,1607.25 1573.5,1608C 1583.06,1609.18 1592.23,1611.68 1601,1615.5C 1607.42,1606.32 1614.09,1597.32 1621,1588.5C 1629.91,1593.37 1638.75,1598.37 1647.5,1603.5C 1648.61,1604.72 1648.78,1606.06 1648,1607.5C 1644.07,1616.46 1640.24,1625.46 1636.5,1634.5C 1643.66,1640.82 1650.32,1647.66 1656.5,1655C 1667.07,1651.75 1677.4,1647.58 1687.5,1642.5C 1693.1,1651.37 1698.43,1660.37 1703.5,1669.5C 1694.96,1676.19 1685.96,1682.35 1676.5,1688C 1680.64,1697.07 1683.31,1706.57 1684.5,1716.5C 1695.76,1717.44 1706.92,1718.77 1718,1720.5C 1718.5,1731.16 1718.67,1741.83 1718.5,1752.5C 1707.82,1752.52 1697.15,1752.85 1686.5,1753.5C 1685.41,1766.3 1682.41,1778.64 1677.5,1790.5C 1687.12,1796.14 1696.46,1802.14 1705.5,1808.5C 1700.47,1817.92 1694.97,1826.92 1689,1835.5C 1680.17,1831.67 1671.33,1827.83 1662.5,1824C 1661.17,1823.33 1659.83,1823.33 1658.5,1824C 1652.32,1831.34 1645.66,1838.18 1638.5,1844.5C 1643.25,1854.16 1647.58,1863.99 1651.5,1874C 1643.24,1880.22 1634.41,1885.72 1625,1890.5C 1623.39,1889.9 1622.06,1888.9 1621,1887.5C 1615.88,1880.05 1610.38,1872.88 1604.5,1866C 1595.78,1868.22 1586.94,1870.39 1578,1872.5C 1576.67,1872.75 1575.67,1873.42 1575,1874.5C 1573.87,1884.85 1572.7,1895.18 1571.5,1905.5C 1560.82,1906.48 1550.16,1906.48 1539.5,1905.5C 1537.84,1894.89 1536.51,1884.22 1535.5,1873.5C 1525.72,1872.35 1516.22,1870.01 1507,1866.5C 1500.07,1875.36 1492.9,1884.03 1485.5,1892.5C 1476.83,1887.5 1468.17,1882.5 1459.5,1877.5C 1458.42,1876.64 1458.25,1875.64 1459,1874.5C 1462.67,1866.17 1466.33,1857.83 1470,1849.5C 1470.78,1848.06 1470.61,1846.72 1469.5,1845.5C 1462.15,1839.65 1455.32,1833.32 1449,1826.5C 1439.99,1829.92 1431.16,1833.75 1422.5,1838C 1421.06,1838.78 1419.72,1838.61 1418.5,1837.5C 1413.5,1828.83 1408.5,1820.17 1403.5,1811.5C 1411.54,1804.72 1419.7,1798.06 1428,1791.5C 1425.14,1782.07 1422.97,1772.4 1421.5,1762.5C 1410.52,1760.98 1399.52,1759.65 1388.5,1758.5C 1388.5,1747.83 1388.5,1737.17 1388.5,1726.5C 1399.17,1725.17 1409.83,1723.83 1420.5,1722.5C 1422.06,1712.29 1424.22,1702.29 1427,1692.5C 1418.02,1686.6 1409.52,1680.1 1401.5,1673C 1406.38,1663.41 1411.88,1654.24 1418,1645.5C 1427.67,1649.5 1437.33,1653.5 1447,1657.5C 1454.1,1650.4 1461.27,1643.23 1468.5,1636C 1464.34,1626.85 1460.17,1617.68 1456,1608.5C 1455.25,1607.36 1455.42,1606.36 1456.5,1605.5C 1465.27,1600.37 1474.1,1595.37 1483,1590.5C 1490,1598.83 1497,1607.17 1504,1615.5C 1513.23,1611.98 1522.73,1609.65 1532.5,1608.5C 1533.57,1597.51 1534.57,1586.51 1535.5,1575.5C 1543.35,1575.83 1551.02,1575.49 1558.5,1574.5 Z M 1549.5,1645.5 C 1589.49,1646.05 1618.99,1663.72 1638,1698.5C 1656.06,1742.09 1648.23,1780.25 1614.5,1813C 1577.92,1840.58 1539.92,1842.58 1500.5,1819C 1463.82,1790.29 1451.99,1753.45 1465,1708.5C 1480.8,1670.86 1508.97,1649.86 1549.5,1645.5 Z M 1543.5,1665.5 C 1580.96,1663.3 1607.79,1678.97 1624,1712.5C 1636.02,1750.11 1626.19,1780.61 1594.5,1804C 1556.14,1824.19 1522.31,1818.36 1493,1786.5C 1472.09,1755.3 1472.42,1724.3 1494,1693.5C 1507.26,1678.29 1523.76,1668.96 1543.5,1665.5 Z"/></g>
<g><path style="opacity:0.979" fill="#5e5e5d" d="M 1544.5,1648.5 C 1587.86,1647.08 1619.02,1665.75 1638,1704.5C 1652.22,1744.09 1644.72,1778.92 1615.5,1809C 1586.5,1833.11 1554.17,1838.78 1518.5,1826C 1482.44,1809.08 1463.44,1780.58 1461.5,1740.5C 1464.37,1696.14 1486.71,1666.64 1528.5,1652C 1533.95,1650.75 1539.29,1649.58 1544.5,1648.5 Z M 1543.5,1665.5 C 1523.76,1668.96 1507.26,1678.29 1494,1693.5C 1472.42,1724.3 1472.09,1755.3 1493,1786.5C 1522.31,1818.36 1556.14,1824.19 1594.5,1804C 1626.19,1780.61 1636.02,1750.11 1624,1712.5C 1607.79,1678.97 1580.96,1663.3 1543.5,1665.5 Z"/></g>
<g><path style="opacity:0.98" fill="#5e5e5d" d="M 1204.5,1678.5 C 1249.6,1675.97 1284.1,1693.63 1308,1731.5C 1322.07,1757.83 1325.41,1785.5 1318,1814.5C 1301.37,1863.13 1267.37,1889.13 1216,1892.5C 1165.61,1889.65 1131.61,1864.65 1114,1817.5C 1102.63,1775.16 1112.13,1738.32 1142.5,1707C 1160.35,1691.24 1181.01,1681.74 1204.5,1678.5 Z M 1204.5,1697.5 C 1172.04,1703.11 1148.54,1720.78 1134,1750.5C 1118.82,1793.94 1129.32,1829.78 1165.5,1858C 1197.43,1877.8 1229.76,1878.47 1262.5,1860C 1300.52,1832.95 1312.35,1797.12 1298,1752.5C 1279.25,1713.53 1248.08,1695.19 1204.5,1697.5 Z"/></g>
<g><path style="opacity:0.965" fill="#af934d" d="M 795.5,1967.5 C 797.048,1967.82 797.715,1968.82 797.5,1970.5C 796.599,1969.71 795.932,1968.71 795.5,1967.5 Z"/></g>
<g><path style="opacity:0.969" fill="#af934d" d="M 797.5,1971.5 C 799.048,1971.82 799.715,1972.82 799.5,1974.5C 798.599,1973.71 797.932,1972.71 797.5,1971.5 Z"/></g>
<g><path style="opacity:0.965" fill="#af924d" d="M 799.5,1975.5 C 801.048,1975.82 801.715,1976.82 801.5,1978.5C 800.599,1977.71 799.932,1976.71 799.5,1975.5 Z"/></g>
<g><path style="opacity:0.953" fill="#af8e29" d="M 1014.5,2071.5 C 1016.59,2072.58 1017.92,2074.25 1018.5,2076.5C 1016.41,2075.42 1015.08,2073.75 1014.5,2071.5 Z"/></g>
<g><path style="opacity:0.949" fill="#a88a23" d="M 1025.5,2083.5 C 1028.24,2085.24 1030.24,2087.57 1031.5,2090.5C 1028.76,2088.76 1026.76,2086.43 1025.5,2083.5 Z"/></g>
<g><path style="opacity:0.973" fill="#ad8d15" d="M 901.5,2209.5 C 904.243,2211.24 906.243,2213.57 907.5,2216.5C 904.757,2214.76 902.757,2212.43 901.5,2209.5 Z"/></g>
<g><path style="opacity:0.965" fill="#ac8d16" d="M 977.5,2214.5 C 980.427,2215.76 982.761,2217.76 984.5,2220.5C 981.573,2219.24 979.239,2217.24 977.5,2214.5 Z"/></g>
<g><path style="opacity:0.494" fill="#323131" d="M 3012.5,2245.5 C 3011.17,2245.5 3009.83,2245.5 3008.5,2245.5C 3009.63,2243.22 3010.97,2243.22 3012.5,2245.5 Z"/></g>
<g><path style="opacity:0.953" fill="#be991c" d="M 2215.5,2246.5 C 2210.78,2252.23 2205.44,2257.23 2199.5,2261.5C 2204.22,2255.77 2209.56,2250.77 2215.5,2246.5 Z"/></g>
<g><path style="opacity:0.902" fill="#b08e17" d="M 659.5,2468.5 C 664.833,2471.83 669.167,2476.17 672.5,2481.5C 667.833,2477.5 663.5,2473.17 659.5,2468.5 Z"/></g>
<g><path style="opacity:0.957" fill="#aa8b1c" d="M 672.5,2481.5 C 678.776,2486.11 684.443,2491.44 689.5,2497.5C 683.224,2492.89 677.557,2487.56 672.5,2481.5 Z"/></g>
<g><path style="opacity:0.97" fill="#009898" d="M 4587.5,2498.5 C 4593.51,2498.33 4599.51,2498.5 4605.5,2499C 4603.54,2510.58 4598.88,2520.91 4591.5,2530C 4583.42,2535.94 4574.42,2537.94 4564.5,2536C 4555.52,2533 4546.35,2530.84 4537,2529.5C 4529.6,2529.06 4524.77,2532.39 4522.5,2539.5C 4516.5,2540.83 4510.5,2540.83 4504.5,2539.5C 4506.07,2525.52 4512.4,2514.35 4523.5,2506C 4530.31,2503.61 4537.31,2502.95 4544.5,2504C 4552.2,2505.84 4559.87,2507.84 4567.5,2510C 4577.98,2512.6 4584.65,2508.76 4587.5,2498.5 Z"/></g>
<g><path style="opacity:0.969" fill="#af8d18" d="M 701.5,2509.5 C 704.089,2510.42 706.089,2512.09 707.5,2514.5C 704.911,2513.58 702.911,2511.91 701.5,2509.5 Z"/></g>
<g><path style="opacity:0.965" fill="#b3912c" d="M 724.5,2530.5 C 726.749,2531.08 728.415,2532.41 729.5,2534.5C 727.251,2533.92 725.585,2532.59 724.5,2530.5 Z"/></g>
<g><path style="opacity:0.976" fill="#b69225" d="M 740.5,2544.5 C 742.749,2545.08 744.415,2546.41 745.5,2548.5C 743.251,2547.92 741.585,2546.59 740.5,2544.5 Z"/></g>
<g><path style="opacity:0.98" fill="#009898" d="M 2638.5,2555.5 C 2652.18,2555.17 2665.85,2555.5 2679.5,2556.5C 2713.42,2616.67 2747.09,2677.01 2780.5,2737.5C 2764.84,2738.67 2749.18,2738.83 2733.5,2738C 2726.25,2725.49 2719.25,2712.83 2712.5,2700C 2675.5,2699.33 2638.5,2699.33 2601.5,2700C 2594.71,2712.42 2588.04,2724.92 2581.5,2737.5C 2567.18,2738.67 2552.84,2738.83 2538.5,2738C 2572.24,2677.35 2605.57,2616.52 2638.5,2555.5 Z M 2657.5,2593.5 C 2670.06,2616.95 2682.39,2640.61 2694.5,2664.5C 2669.51,2665.67 2644.51,2665.83 2619.5,2665C 2632.31,2641.22 2644.97,2617.39 2657.5,2593.5 Z"/></g>
<g><path style="opacity:0.993" fill="#009898" d="M 4944.5,2585.5 C 4944.5,2627.17 4944.5,2668.83 4944.5,2710.5C 4943.3,2717.24 4940.8,2723.58 4937,2729.5C 4931.39,2734.26 4924.89,2737.1 4917.5,2738C 4864.5,2738.67 4811.5,2738.67 4758.5,2738C 4744.47,2737.25 4735.97,2730.09 4733,2716.5C 4732,2711.55 4731.34,2706.55 4731,2701.5C 4730.33,2665.83 4730.33,2630.17 4731,2594.5C 4730.76,2583.25 4734.26,2573.42 4741.5,2565C 4745.27,2562.78 4749.27,2561.11 4753.5,2560C 4807.8,2558.35 4862.13,2558.02 4916.5,2559C 4922.9,2559.8 4928.9,2561.8 4934.5,2565C 4939.86,2570.93 4943.19,2577.77 4944.5,2585.5 Z M 4771.5,2592.5 C 4815.83,2592.5 4860.17,2592.5 4904.5,2592.5C 4904.5,2629.5 4904.5,2666.5 4904.5,2703.5C 4860.17,2703.5 4815.83,2703.5 4771.5,2703.5C 4771.5,2666.5 4771.5,2629.5 4771.5,2592.5 Z"/></g>
<g><path style="opacity:0.98" fill="#009898" d="M 4235.5,2563.5 C 4273.83,2563.33 4312.17,2563.5 4350.5,2564C 4361.53,2563.71 4371.37,2566.88 4380,2573.5C 4384.12,2579.51 4386.45,2586.18 4387,2593.5C 4387.5,2603.16 4387.67,2612.83 4387.5,2622.5C 4373.86,2624.69 4360.2,2626.69 4346.5,2628.5C 4346.5,2617.83 4346.5,2607.17 4346.5,2596.5C 4310.83,2596.5 4275.17,2596.5 4239.5,2596.5C 4239.5,2632.17 4239.5,2667.83 4239.5,2703.5C 4275.17,2703.5 4310.83,2703.5 4346.5,2703.5C 4346.33,2691.16 4346.5,2678.83 4347,2666.5C 4360.13,2669.56 4373.29,2672.56 4386.5,2675.5C 4387.88,2688.53 4387.71,2701.53 4386,2714.5C 4382.72,2728.44 4373.89,2735.94 4359.5,2737C 4340.17,2737.5 4320.84,2737.67 4301.5,2737.5C 4301.5,2743.5 4301.5,2749.5 4301.5,2755.5C 4338.98,2754.13 4354.48,2771.8 4348,2808.5C 4344.19,2818.97 4337.03,2826.14 4326.5,2830C 4314.36,2833.25 4302.03,2834.25 4289.5,2833C 4276.02,2831.2 4262.69,2828.7 4249.5,2825.5C 4249.5,2817.17 4249.5,2808.83 4249.5,2800.5C 4262.07,2803.45 4274.73,2805.95 4287.5,2808C 4293.83,2808.67 4300.17,2808.67 4306.5,2808C 4316.52,2805.65 4320.35,2799.49 4318,2789.5C 4317.12,2786.9 4315.62,2784.73 4313.5,2783C 4303.83,2779.04 4293.83,2777.87 4283.5,2779.5C 4283.5,2765.5 4283.5,2751.5 4283.5,2737.5C 4264.5,2737.67 4245.5,2737.5 4226.5,2737C 4207.23,2734.37 4198.06,2723.21 4199,2703.5C 4198.33,2668.5 4198.33,2633.5 4199,2598.5C 4199.62,2574.72 4211.78,2563.05 4235.5,2563.5 Z"/></g>
<g><path style="opacity:0.988" fill="#009898" d="M 4533.5,2563.5 C 4547.18,2563.17 4560.85,2563.5 4574.5,2564.5C 4607.25,2622.33 4640.25,2680 4673.5,2737.5C 4657.83,2738.83 4642.17,2738.83 4626.5,2737.5C 4619.83,2725.5 4613.17,2713.5 4606.5,2701.5C 4569.83,2700.17 4533.17,2700.17 4496.5,2701.5C 4489.71,2713.59 4483.04,2725.75 4476.5,2738C 4462.5,2738.67 4448.5,2738.67 4434.5,2738C 4467.89,2680.05 4500.89,2621.88 4533.5,2563.5 Z M 4551.5,2599.5 C 4564.31,2621.78 4576.65,2644.45 4588.5,2667.5C 4563.84,2668.67 4539.17,2668.83 4514.5,2668C 4527.24,2645.35 4539.57,2622.52 4551.5,2599.5 Z"/></g>
<g><path style="opacity:0.988" fill="#009999" d="M 2837.5,2564.5 C 2851.17,2564.5 2864.83,2564.5 2878.5,2564.5C 2878.5,2611.5 2878.5,2658.5 2878.5,2705.5C 2916.17,2705.5 2953.83,2705.5 2991.5,2705.5C 2991.5,2658.5 2991.5,2611.5 2991.5,2564.5C 3004.83,2564.5 3018.17,2564.5 3031.5,2564.5C 3031.67,2613.17 3031.5,2661.83 3031,2710.5C 3030.43,2719.8 3026.6,2727.3 3019.5,2733C 3014.77,2735.47 3009.77,2737.13 3004.5,2738C 2958.17,2738.67 2911.83,2738.67 2865.5,2738C 2852.04,2737.2 2843.54,2730.37 2840,2717.5C 2838.94,2712.9 2838.27,2708.23 2838,2703.5C 2837.5,2657.17 2837.33,2610.83 2837.5,2564.5 Z"/></g>
<g><path style="opacity:0.984" fill="#009898" d="M 3075.5,2564.5 C 3146.83,2564.5 3218.17,2564.5 3289.5,2564.5C 3289.5,2575.17 3289.5,2585.83 3289.5,2596.5C 3261.17,2596.5 3232.83,2596.5 3204.5,2596.5C 3204.5,2643.83 3204.5,2691.17 3204.5,2738.5C 3189.83,2738.5 3175.17,2738.5 3160.5,2738.5C 3160.5,2691.17 3160.5,2643.83 3160.5,2596.5C 3132.17,2596.5 3103.83,2596.5 3075.5,2596.5C 3075.5,2585.83 3075.5,2575.17 3075.5,2564.5 Z"/></g>
<g><path style="opacity:0.985" fill="#009999" d="M 3355.5,2564.5 C 3409.83,2564.33 3464.17,2564.5 3518.5,2565C 3536.46,2566.63 3545.96,2576.46 3547,2594.5C 3547.67,2632.5 3547.67,2670.5 3547,2708.5C 3545.97,2726.53 3536.47,2736.36 3518.5,2738C 3464.17,2738.67 3409.83,2738.67 3355.5,2738C 3335.56,2735.35 3326.06,2723.85 3327,2703.5C 3326.33,2668.83 3326.33,2634.17 3327,2599.5C 3327.06,2590.52 3329.4,2582.18 3334,2574.5C 3340.21,2568.94 3347.38,2565.6 3355.5,2564.5 Z M 3369.5,2596.5 C 3414.83,2596.5 3460.17,2596.5 3505.5,2596.5C 3505.5,2632.83 3505.5,2669.17 3505.5,2705.5C 3460.17,2705.5 3414.83,2705.5 3369.5,2705.5C 3369.5,2669.17 3369.5,2632.83 3369.5,2596.5 Z"/></g>
<g><path style="opacity:0.983" fill="#009898" d="M 3626.5,2564.5 C 3638.17,2564.33 3649.84,2564.5 3661.5,2565C 3688.62,2599.79 3716.12,2634.29 3744,2668.5C 3770.31,2634.02 3796.81,2599.69 3823.5,2565.5C 3835.15,2564.5 3846.81,2564.17 3858.5,2564.5C 3858.5,2622.5 3858.5,2680.5 3858.5,2738.5C 3845.5,2738.5 3832.5,2738.5 3819.5,2738.5C 3819.36,2697.79 3819.52,2657.12 3820,2616.5C 3817.07,2622.43 3813.73,2628.09 3810,2633.5C 3788.69,2661.64 3767.19,2689.64 3745.5,2717.5C 3740.52,2719.34 3736.35,2718.34 3733,2714.5C 3711.67,2686.5 3690.33,2658.5 3669,2630.5C 3666.08,2626.33 3663.42,2622 3661,2617.5C 3660.5,2657.83 3660.33,2698.17 3660.5,2738.5C 3649.17,2738.5 3637.83,2738.5 3626.5,2738.5C 3626.5,2680.5 3626.5,2622.5 3626.5,2564.5 Z"/></g>
<g><path style="opacity:0.987" fill="#009898" d="M 4006.5,2564.5 C 4020.5,2564.33 4034.5,2564.5 4048.5,2565C 4082.71,2622.58 4117.04,2680.08 4151.5,2737.5C 4135.51,2738.67 4119.51,2738.83 4103.5,2738C 4096.25,2726.16 4089.25,2714.16 4082.5,2702C 4044.5,2701.33 4006.5,2701.33 3968.5,2702C 3961.71,2713.75 3955.04,2725.59 3948.5,2737.5C 3934.17,2738.83 3919.83,2738.83 3905.5,2737.5C 3938.93,2679.64 3972.59,2621.98 4006.5,2564.5 Z M 4025.5,2599.5 C 4038.5,2621.87 4051.17,2644.54 4063.5,2667.5C 4038.17,2668.83 4012.83,2668.83 3987.5,2667.5C 4000.7,2645.1 4013.36,2622.44 4025.5,2599.5 Z"/></g>
<g><path style="opacity:0.333" fill="#a3841c" d="M 1761.5,2840.5 C 1760.43,2841.43 1759.1,2841.77 1757.5,2841.5C 1757.74,2842.79 1757.4,2843.79 1756.5,2844.5C 1756.5,2843.17 1756.5,2841.83 1756.5,2840.5C 1758.17,2840.5 1759.83,2840.5 1761.5,2840.5 Z"/></g>
<g><path style="opacity:0.267" fill="#ad8a1a" d="M 1399.5,2842.5 C 1401.37,2844.64 1402.04,2847.3 1401.5,2850.5C 1400.75,2847.95 1400.08,2845.28 1399.5,2842.5 Z"/></g>
</svg>
